<svg xmlns="http://www.w3.org/2000/svg" width="19" height="24" viewBox="0 0 19 24">
    <path fill="#FFF" fill-rule="nonzero" stroke="#FFF" d="M18 6.315c-.024-.074-.049-.074-.049-.098-.024-.024-.024-.024-.048-.024-.024-.025-.024-.025-.049-.025-.032 0-2.744-.463-8.135-1.39H9.62l-1.505.366V2.412c0-.464-.243-.903-.632-1.171a1.328 1.328 0 0 0-1.311-.122L1 3.265l.34.854 5.173-2.147c.146-.073.316-.048.461.05a.48.48 0 0 1 .219.414v2.927l-3.206.805c-.024 0-.024 0-.048.025-.025.024-.025.024-.049.024-.024.049-.049.073-.049.073-.024.049-.024.049-.024.073v.098l.292 14.148c0 .122.072.22.194.244L12.536 23h.073c.024 0 .048 0 .072-.024.017 0 1.668-.895 4.955-2.684.073-.049.145-.122.145-.22L18 6.389v-.073zM9.646 5.29l6.994 1.195-1.797.61-6.606-1.463 1.409-.342zm7.601 1.561L15.28 9.535v-2l1.967-.684zm-2.258.756v3.196l-.68.366-1.506-2.537v-.268l2.186-.757zm-2.72 14.759L4.57 20.34 4.279 6.73l7.99 1.66v13.977zM12.51 7.9l-7.31-1.512L7.17 5.9v.244c-.122.049-.195.146-.195.22 0 .17.292.317.656.317.364 0 .656-.147.656-.318 0-.097-.073-.17-.195-.22v-.292l6.315 1.415-1.895.634zm4.663 11.953l-4.371 2.415V9.144l1.36 2.245a.133.133 0 0 0 .121.073c.025 0 .049 0 .049-.025l.874-.439a.134.134 0 0 0 .073-.122v-.902l2.186-2.976-.292 12.855z"/>
</svg>
