<svg xmlns="http://www.w3.org/2000/svg" width="22" height="22" viewBox="0 0 22 22">
    <path fill="#FFF" fill-rule="nonzero" d="M21.728 4.603L17.397.272a.928.928 0 1 0-1.312 1.312l.526.526-2.53 2.531-2.195-2.194a.928.928 0 1 0-1.313 1.312l1.012 1.012-8.53 8.531a.928.928 0 0 0 0 1.313l1.509 1.51-4.292 4.29a.928.928 0 1 0 1.312 1.313l4.292-4.292 1.51 1.51a.928.928 0 0 0 1.312 0l8.531-8.531 1.012 1.012a.928.928 0 1 0 1.312-1.313L17.36 7.92l2.53-2.531.527.526a.928.928 0 1 0 1.312-1.312zM8.041 16.977l-3.018-3.019 1.225-1.225.787.788a.928.928 0 0 0 1.313-1.313l-.788-.787.744-.744.787.788a.928.928 0 1 0 1.313-1.313l-.788-.787.744-.744.787.788a.928.928 0 1 0 1.313-1.313l-.788-.787 1.226-1.226 3.019 3.02-7.876 7.874zm8.005-10.37l-.653-.653 2.53-2.531.654.654-2.53 2.53z"/>
</svg>
