<svg xmlns="http://www.w3.org/2000/svg" width="18" height="24" viewBox="0 0 18 24">
    <path fill="#FFF" fill-rule="nonzero" d="M9 0C5.71 0 3.26.808 1.844 1.438A3.021 3.021 0 0 0 .062 4.344l.844 14.812c.088 1.58 1.418 2.844 3 2.844H8v2h2v-2h4.094c1.582 0 2.912-1.264 3-2.844l.843-14.812a3.02 3.02 0 0 0-1.78-2.907C14.738.808 12.29 0 9 0zm0 2c2.963 0 5.13.743 6.344 1.281.368.164.617.52.594.938L15.374 14H2.625l-.563-9.781a.942.942 0 0 1 .563-.938h.031C3.87 2.743 6.036 2 9 2zm0 2.25l-.813 1.188s-.539.754-1.062 1.656c-.262.45-.507.925-.719 1.406C6.195 8.981 6 9.422 6 10c0 1.645 1.355 3 3 3s3-1.355 3-3c0-.578-.195-1.019-.406-1.5a14.225 14.225 0 0 0-.719-1.406c-.523-.902-1.063-1.657-1.063-1.657L9 4.25zm0 3.625c.066.109.058.103.125.219.238.41.493.846.656 1.219.164.372.219.712.219.687 0 .565-.435 1-1 1s-1-.435-1-1c0 .025.055-.315.219-.688.163-.372.418-.807.656-1.218.067-.116.06-.11.125-.219zM2.719 16H15.28l-.187 3.063a.983.983 0 0 1-1 .937H3.906a.983.983 0 0 1-1-.938L2.72 16zm2.062 1l.094 2H8v-2H4.781zM10 17v2h3.125l.094-2H10z"/>
</svg>
